General
Complete name                    : Purple Rain.mkv
Format                           : Matroska
File size                        : 1.83 GiB
Duration                         : 1h 46mn
Overall bit rate                 : 2 457 Kbps


Video
ID                               : 1
Format                           : AVC

Duration                         : 1h 46mn
Bit rate                         : 1 641 Kbps
Width                            : 716 pixels
Height                           : 576 pixels
Display aspect ratio             : 16:9
Frame rate                       : 25.000 fps
Resolution                       : 8 bits
Colorimetry                      : 4:2:0
Scan type                        : Progressive
Bits/(Pixel*Frame)               : 0.159
Stream size                      : 1.22 GiB (67%)
Writing library                  : x264 core 79


Audio #1
ID                               : 2
Format                           : AC-3
Format/Info                      : Audio Coding 3
Codec ID                         : A_AC3
Duration                         : 1h 46mn
Bit rate mode                    : Constant
Bit rate                         : 384 Kbps
Channel(s)                       : 6 channels
Channel positions                : Front: L C R, Surround: L R, LFE
Sampling rate                    : 48.0 KHz
Stream size                      : 293 MiB (16%)
Language                         : English

Audio #2
ID                               : 3
Format                           : AC-3
Format/Info                      : Audio Coding 3
Codec ID                         : A_AC3
Duration                         : 1h 46mn
Bit rate mode                    : Constant
Bit rate                         : 384 Kbps
Channel(s)                       : 6 channels
Channel positions                : Front: L C R, Surround: L R, LFE
Sampling rate                    : 48.0 KHz
Stream size                      : 293 MiB (16%)
Language                         : German

Text #1
Language                         : English

Text #2
Language                         : German

Text #3
Language                         : Spanish

Text #4
Language                         : Dutch

Text #5
Language                         : Swedish

Text #6
Language                         : Norwegian

Text #7
Language                         : Danish

Text #8
Language                         : Finnish

Text #9
Language                         : Portuguese

Text #10
Language                           xxxxxxx

Text #11
Language                         : Polish

Text #12
Language                         : Greek

Text #13
Language                         : Czech

Text #14
Language                         : Turkish

Text #15
Language                         : Hungarian

Text #16
Language                         : Icelandic

Text #17
Language                         : Icelandic

Text #18
Language                         : Croatian

Text #19
Language                         : French

Text #20
Language                         : Italian

Text #21
Language                         : English



